<svg width="100" height="100" viewBox="0 0 100 100" fill="none" xmlns="http://www.w3.org/2000/svg">
<g clip-path="url(#clip0_343_224)">
<rect width="100" height="100" rx="8" fill="url(#paint0_linear_343_224)"/>
<g filter="url(#filter0_d_343_224)">
<path d="M30.1593 65.4694L27.1725 68.4562L23.1335 64.4172C22.6809 63.9647 22.3302 63.7497 22.0813 63.7723C21.8098 63.7723 21.459 63.9873 21.0291 64.4172L12.3402 73.1062C11.9103 73.5361 11.6953 73.8868 11.6953 74.1583C11.6727 74.4072 11.8876 74.758 12.3402 75.2105L27.3422 90.2125C27.7947 90.665 28.1567 90.8913 28.4283 90.8913C28.6772 90.8687 29.0166 90.6424 29.4465 90.2125L38.1354 81.5236C38.5654 81.0936 38.7916 80.7542 38.8143 80.5053C38.8143 80.2338 38.588 79.8718 38.1354 79.4192L34.0964 75.3802L37.0833 72.3934L41.4956 76.8057C43.2832 78.5933 43.2832 80.3809 41.4956 82.1684L30.0914 93.5727C28.3038 95.3602 26.5163 95.3602 24.7287 93.5727L8.98001 77.824C7.19244 76.0364 7.19244 74.2488 8.98001 72.4613L20.3842 61.0571C22.1718 59.2695 23.9594 59.2695 25.7469 61.0571L30.1593 65.4694ZM38.3579 52.3832L41.8878 48.8534L43.9582 50.9238L39.9871 54.8949C38.5163 56.3657 38.6294 57.9496 40.3265 59.6466L52.1719 71.4921L49.253 74.411L32.7916 57.9496L35.7105 55.0307L37.7809 57.1011C36.7627 55.3588 36.955 53.7861 38.3579 52.3832ZM56.4202 25.0211L58.4227 27.0237L50.6502 34.7962L69.759 53.905L66.8061 56.8579L47.6973 37.7491L39.9248 45.5216L37.9222 43.519L56.4202 25.0211ZM74.0841 30.7087L84.1307 20.6621L80.1596 16.691C79.7297 16.261 79.3789 16.0461 79.1074 16.0461C78.8359 16.0461 78.4852 16.261 78.0552 16.691L70.113 24.6332C69.6831 25.0631 69.4681 25.4138 69.4681 25.6854C69.4681 25.9569 69.6831 26.3076 70.113 26.7375L74.0841 30.7087ZM66.8207 23.9204L77.3085 13.4326C79.0961 11.6451 80.8837 11.6451 82.6712 13.4326L89.0182 19.7796L76.0867 32.7112L80.4651 37.0896C80.9176 37.5421 81.2796 37.7684 81.5512 37.7684C81.8001 37.7458 82.1395 37.5195 82.5694 37.0896L90.4098 29.2492C90.8624 28.7966 91.0886 28.4572 91.0886 28.231C91.0886 27.9594 90.8624 27.5974 90.4098 27.1448L88.8146 25.5496L91.6996 22.6646L93.6682 24.6332C95.4557 26.4208 95.4557 28.2083 93.6682 29.9959L83.2822 40.3819C81.4946 42.1694 79.707 42.1694 77.9195 40.3819L66.8207 29.2831C65.0332 27.4956 65.0332 25.708 66.8207 23.9204Z" fill="#F9E4E4"/>
</g>
</g>
<defs>
<filter id="filter0_d_343_224" x="2.29871" y="6.10132" width="98.1526" height="98.1527" filterUnits="userSpaceOnUse" color-interpolation-filters="sRGB">
<feFlood flood-opacity="0" result="BackgroundImageFix"/>
<feColorMatrix in="SourceAlpha" type="matrix" values="0 0 0 0 0 0 0 0 0 0 0 0 0 0 0 0 0 0 127 0" result="hardAlpha"/>
<feOffset dy="4"/>
<feGaussianBlur stdDeviation="2"/>
<feComposite in2="hardAlpha" operator="out"/>
<feColorMatrix type="matrix" values="0 0 0 0 0 0 0 0 0 0 0 0 0 0 0 0 0 0 0.25 0"/>
<feBlend mode="normal" in2="BackgroundImageFix" result="effect1_dropShadow_343_224"/>
<feBlend mode="normal" in="SourceGraphic" in2="effect1_dropShadow_343_224" result="shape"/>
</filter>
<linearGradient id="paint0_linear_343_224" x1="50" y1="0" x2="50" y2="100" gradientUnits="userSpaceOnUse">
<stop stop-color="#4ED86C"/>
<stop offset="1" stop-color="#194119"/>
</linearGradient>
<clipPath id="clip0_343_224">
<rect width="100" height="100" rx="8" fill="white"/>
</clipPath>
</defs>
</svg>
